Coordinates
version=1
nRows=19
nColumns=36
inDegrees=yes

Units are S.I. units (second, meters, Newtons, ...)
If the header above contains a line with 'inDegrees', this indicates whether rotational values are in degrees (yes) or radians (no).

endheader
time	pelvis_tilt	pelvis_list	pelvis_rotation	pelvis_tx	pelvis_ty	pelvis_tz	hip_flexion_r	hip_adduction_r	hip_rotation_r	knee_angle_r	knee_angle_r_beta	ankle_angle_r	subtalar_angle_r	mtp_angle_r	hip_flexion_l	hip_adduction_l	hip_rotation_l	knee_angle_l	knee_angle_l_beta	ankle_angle_l	subtalar_angle_l	mtp_angle_l	lumbar_extension	lumbar_bending	lumbar_rotation	arm_flex_r	arm_add_r	arm_rot_r	elbow_flex_r	pro_sup_r	arm_flex_l	arm_add_l	arm_rot_l	elbow_flex_l	pro_sup_l
     10.68000000	    -16.40699331	     -0.24360858	      0.75695698	     -0.48929744	      0.59732571	     -0.68593992	     95.68517774	    -16.27284986	      5.40641574	     97.46896722	      1.70115440	     25.74588871	     -2.01568323	     -7.49999987	     95.72346529	    -12.81819223	      2.17022940	     96.63419359	      1.68658485	     24.44839321	     -2.88233930	     -7.49999987	    -23.13858905	      0.37280518	     -1.77987256	     55.04599793	    -16.90530386	     12.83431974	    109.62469935	     99.70809097	     58.41872208	    -18.97172290	     13.89356831	    107.95188958	    103.28239231
     10.69000000	    -15.56738024	     -0.25290298	      0.79411610	     -0.49180998	      0.59403120	     -0.68559435	     95.54908444	    -16.19642879	      5.60899500	     98.10718287	      1.71229336	     25.65887569	     -2.04902897	     -7.49999987	     95.61039988	    -12.86717606	      2.30701650	     97.23375352	      1.69704914	     24.36558478	     -2.84803793	     -7.49999987	    -23.38270448	      0.38025273	     -1.81328604	     54.43924833	    -16.77964424	     12.90448714	    109.37632011	     99.68615390	     57.95156214	    -18.72556475	     13.99790493	    107.77661367	    103.26687254
     10.70000000	    -14.59228751	     -0.23713924	      0.82241777	     -0.49448598	      0.59107910	     -0.68527193	     95.25003180	    -16.07842213	      5.88016384	     98.68977140	      1.72246145	     25.54130315	     -2.11366085	     -7.49999987	     95.32411319	    -12.90866536	      2.43625677	     97.78677084	      1.70670112	     24.25170318	     -2.68912710	     -7.49999987	    -23.71664901	      0.36066122	     -1.80550706	     53.87670400	    -16.57422705	     12.84065659	    108.94852371	     99.63102611	     57.55567561	    -18.31456723	     13.96913066	    107.34030536	    103.20046574
     10.71000000	    -13.77957652	     -0.21983130	      0.88353720	     -0.49706558	      0.58797348	     -0.68505832	     95.11587374	    -16.02955528	      6.11532934	     99.24999534	      1.73223920	     25.49552190	     -2.19676695	     -7.49999987	     95.18367106	    -12.88447755	      2.56132701	     98.30545110	      1.71575379	     24.18880238	     -2.68106415	     -7.49999987	    -23.82097517	      0.36277342	     -1.85482886	     53.18802875	    -16.47343397	     13.01146527	    108.83450818	     99.62223980	     56.96557041	    -18.12705771	     14.11728840	    107.28491495	    103.19768667
     10.72000000	    -12.79626815	     -0.09924181	      0.93445248	     -0.49978659	      0.58525992	     -0.68483594	     94.84638587	    -15.96831400	      6.46626113	     99.81453540	      1.74209228	     25.38751351	     -2.34481411	     -7.49999987	     94.80636671	    -12.87712785	      2.55973051	     98.79401535	      1.72428085	     24.07341938	     -2.58228745	     -7.49999987	    -24.07740853	      0.23012768	     -1.93720160	     52.56604160	    -16.30849845	     13.04807851	    108.50352871	     99.56696892	     56.44633211	    -17.85173652	     14.12255484	    107.04858799	    103.15675326
     10.73000000	    -11.92905271	     -0.06886121	      0.98030691	     -0.50248528	      0.58233117	     -0.68455118	     94.63915534	    -15.87164788	      6.72548484	    100.34059806	      1.75127381	     25.31930853	     -2.41822013	     -7.49999987	     94.58894853	    -12.83277348	      2.71590829	     99.27964771	      1.73275673	     24.00376460	     -2.58583101	     -7.49999987	    -24.11209466	      0.17955570	     -1.95066846	     51.85687920	    -16.25816640	     13.22455943	    108.38379117	     99.55795588	     55.80966360	    -17.70623219	     14.30342390	    107.03018425	    103.16191723
     10.74000000	    -11.02109370	     -0.04288334	      1.01099365	     -0.50522984	      0.57934795	     -0.68422098	     94.39364853	    -15.71960528	      7.01252936	    100.87684318	      1.76063305	     25.24210065	     -2.49059158	     -7.49999987	     94.34638297	    -12.76948682	      2.92853660	     99.78274496	      1.74153744	     23.92117606	     -2.58093083	     -7.49999987	    -24.13354975	      0.12284413	     -1.95976547	     51.15392973	    -16.21176594	     13.38108711	    108.21343810	     99.54758791	     55.16055992	    -17.50845992	     14.44249075	    106.96151003	    103.15896034
     10.75000000	    -10.00457248	     -0.03887623	      1.03511494	     -0.50793562	      0.57648940	     -0.68384138	     94.02611604	    -15.58297747	      7.23875451	    101.43761217	      1.77042032	     25.11702184	     -2.55890801	     -7.49999987	     94.02664662	    -12.80733854	      3.07780078	    100.32899846	      1.75107136	     23.81578287	     -2.54303144	     -7.49999987	    -24.18396543	      0.07096378	     -1.95925174	     50.47021834	    -16.19105540	     13.48726632	    107.91212860	     99.52275006	     54.48672407	    -17.20901540	     14.47147879	    106.75003275	    103.13258973
     10.76000000	     -9.08236150	     -0.03517728	      1.05447793	     -0.51082704	      0.57371219	     -0.68356456	     93.71436513	    -15.41069186	      7.51648583	    101.88509056	      1.77823029	     25.02377057	     -2.59759715	     -7.49999987	     93.73911235	    -12.70408407	      3.34877682	    100.74543146	      1.75833949	     23.73729987	     -2.53227123	     -7.49999987	    -24.14013982	      0.05054254	     -1.92848477	     49.78522384	    -16.12848494	     13.68370579	    107.73735997	     99.51203724	     53.80675593	    -16.98562832	     14.59272676	    106.64919084	    103.12813418
     10.77000000	     -7.91299027	     -0.04313737	      1.06286302	     -0.51355981	      0.57125852	     -0.68339849	     93.18115816	    -15.38778673	      7.61547237	    102.41806632	      1.78753247	     24.77811048	     -2.63931120	     -7.49999987	     93.23657488	    -12.73316308	      3.48261819	    101.30906560	      1.76817676	     23.59104724	     -2.39360521	     -7.49999987	    -24.25234481	      0.05104435	     -1.85609746	     49.19801873	    -16.15421152	     13.80336513	    107.15220421	     99.43303581	     53.08031450	    -16.55351986	     14.38266653	    106.15857743	    103.05576170
     10.78000000	     -6.99028320	     -0.05929563	      1.16750174	     -0.51616641	      0.56878299	     -0.68331709	     92.81641186	    -15.40146460	      7.79342227	    102.84763237	      1.79502981	     24.68350369	     -2.68796515	     -7.49999987	     92.91376412	    -12.58386843	      3.68285760	    101.70928013	      1.77516182	     23.52763256	     -2.38551523	     -7.49999987	    -24.07447523	      0.03625672	     -1.90011511	     48.40965049	    -16.18175153	     14.01783078	    106.97076313	     99.41758628	     52.24633235	    -16.37792261	     14.53010629	    106.08822934	    103.05298734
     10.79000000	     -5.90872326	     -0.05833438	      1.35129315	     -0.51881859	      0.56724952	     -0.68342628	     92.19296558	    -15.53083132	      7.95725781	    103.22372740	      1.80159391	     24.48524067	     -2.71652208	     -7.49999987	     92.31778572	    -12.28769456	      3.89168268	    102.01891362	      1.78056594	     23.42875229	     -2.33834422	     -7.49999987	    -24.08352765	      0.03896410	     -2.01369988	     47.67141302	    -16.15524154	     14.16263821	    106.45945066	     99.35186482	     51.39275538	    -15.92422991	     14.35967855	    105.72225951	    102.98300807
     10.80000000	     -5.01985095	     -0.05504946	      1.37132647	     -0.52134955	      0.56629816	     -0.68319804	     91.65031787	    -15.43587119	      8.07762284	    103.43795278	      1.80533285	     24.37759361	     -2.71919723	     -7.49999987	     91.79005919	    -12.19737436	      4.05026315	    102.21665218	      1.78401713	     23.33154574	     -2.31926155	     -7.49999987	    -23.95266263	     -0.01551045	     -1.99684822	     46.73224556	    -16.09985532	     14.36138665	    106.23559820	     99.32643889	     50.40364638	    -15.75135248	     14.44848303	    105.64225923	    102.97442833
     10.81000000	     -4.17124931	     -0.09035473	      1.35408630	     -0.52378911	      0.56617316	     -0.68305032	     90.99860594	    -15.30908733	      8.12794008	    103.50622591	      1.80652444	     24.20167562	     -2.72800122	     -7.49999987	     91.21186433	    -12.17384270	      4.19654292	    102.31994618	      1.78581995	     23.15454877	     -2.22173686	     -7.49999987	    -23.78361273	     -0.01319638	     -1.96381757	     45.76819615	    -15.85465211	     14.30539992	    105.78464007	     99.23989838	     49.20044882	    -15.41849395	     14.12490823	    105.51152144	    102.93344012
     10.82000000	     -3.54300345	     -0.11145022	      1.43243471	     -0.52585632	      0.56664707	     -0.68330026	     90.45226692	    -15.34932291	      8.16125510	    103.46001901	      1.80571798	     24.12970717	     -2.74582772	     -7.49999987	     90.71647658	    -12.01332524	      4.27211215	    102.28956615	      1.78528972	     23.06380926	     -2.18545315	     -7.49999987	    -23.41012356	      0.01264050	     -1.99520572	     44.58332180	    -15.78174151	     14.49057671	    105.64552139	     99.22851223	     47.87658647	    -15.27452516	     14.29418784	    105.51543373	    102.94580161
     10.83000000	     -3.26381041	     -0.22276242	      1.76842438	     -0.52736752	      0.56736266	     -0.68419675	     90.13228009	    -15.78102492	      7.99590182	    103.35191286	      1.80383117	     24.03380551	     -2.87771452	     -7.49999987	     90.51817878	    -11.52982086	      4.40634551	    102.13506035	      1.78259308	     22.85275541	     -2.11868707	     -7.49999987	    -22.53196563	      0.26295126	     -2.32586702	     43.02871527	    -15.31611145	     14.07209848	    105.25564426	     99.14131760	     45.89196221	    -14.67789011	     13.50092547	    105.56754598	    102.91106971
     10.84000000	     -2.86393876	     -0.28086857	      1.89060341	     -0.52882584	      0.56889533	     -0.68444694	     89.59758029	    -15.90936806	      7.87791656	    103.13276790	      1.80000637	     23.91993790	     -2.96015607	     -7.49999987	     90.05049037	    -11.32331599	      4.48062483	    101.91340689	      1.77872450	     22.67365886	     -2.10429254	     -7.49999987	    -21.88032073	      0.34561919	     -2.49464845	     41.50938704	    -14.90149217	     13.94248179	    104.98350367	     99.06550512	     43.97656191	    -14.24972062	     12.89765289	    105.70138541	    102.89381803
     10.85000000	     -2.15872687	     -0.24857512	      1.73469349	     -0.53049200	      0.57159737	     -0.68388115	     88.67063604	    -15.68563316	      7.78236355	    102.79040248	      1.79403096	     23.77368929	     -3.03070629	     -7.49999987	     89.09427631	    -11.50396257	      4.42306322	    101.61142803	      1.77345398	     22.56235667	     -2.09153796	     -7.49999987	    -21.70006698	      0.21488277	     -2.42460676	     40.09783673	    -14.44918220	     13.80898751	    104.73018758	     98.99107632	     42.28347579	    -13.96738256	     12.40627657	    105.81620335	    102.86691146
     10.86000000	     -1.29801745	     -0.14641747	      1.51276797	     -0.53225015	      0.57471756	     -0.68313818	     87.59047196	    -15.43009329	      7.73526553	    102.43206500	      1.78777679	     23.59257083	     -3.15389000	     -7.49999987	     87.90938450	    -11.78556641	      4.26378713	    101.27602453	      1.76760008	     22.51210549	     -2.07011220	     -7.49999987	    -21.72912423	     -0.04840167	     -2.30652533	     38.70868409	    -13.96258968	     13.55440390	    104.51760148	     98.91837569	     40.68709927	    -13.75662157	     11.94182511	    105.93969078	    102.82494225
